<svg width="236" height="273" viewBox="0 0 236 273" fill="none" xmlns="http://www.w3.org/2000/svg">
<path d="M31.1941 183.75C39.7661 183.75 47.2078 186.856 53.5263 193.06C59.8376 199.271 62.9968 206.97 62.9968 216.163C62.9968 225.356 59.9825 233.186 53.961 239.658C47.9324 246.131 40.5197 249.36 31.7158 249.36C22.9119 249.36 15.4195 246.167 9.25316 239.789C3.0868 233.403 0 225.806 0 216.99C0 212.179 0.869521 207.666 2.60856 203.458C4.34761 199.249 6.65908 195.73 9.55749 192.885C12.4559 190.041 15.7818 187.806 19.5497 186.188C23.3177 184.563 27.1943 183.75 31.1941 183.75ZM15.376 216.555C15.376 221.721 17.0426 225.908 20.3758 229.13C23.7089 232.351 27.4262 233.962 31.5419 233.962C35.6576 233.962 39.3603 232.395 42.6645 229.26C45.9687 226.126 47.6135 221.924 47.6135 216.642C47.6135 211.359 45.947 207.129 42.6138 203.936C39.2806 200.744 35.5634 199.147 31.4477 199.147C27.332 199.147 23.6292 200.758 20.3251 203.98C17.0209 207.202 15.3688 211.388 15.3688 216.555H15.376Z" fill="#1576D4"/>
<path d="M97.8935 197.653C104.545 197.653 110.089 200.2 114.516 205.301C118.943 210.402 121.153 216.613 121.153 223.942V241.538C121.153 243.069 121.102 244.222 121.001 244.984C120.9 245.753 120.617 246.602 120.153 247.531C119.219 249.331 116.624 250.23 112.364 250.23C107.639 250.23 104.908 248.997 104.176 246.53C103.777 245.398 103.574 243.7 103.574 241.429V223.833C103.574 221.104 102.792 218.971 101.227 217.433C99.6615 215.902 97.5674 215.133 94.9371 215.133C92.3068 215.133 90.1765 215.931 88.5462 217.534C86.9158 219.131 86.097 221.235 86.097 223.833V241.523C86.097 243.054 86.0463 244.208 85.9448 244.97C85.8434 245.739 85.5318 246.588 84.9956 247.517C84.1333 249.316 81.5683 250.216 77.3076 250.216C73.0469 250.216 70.5543 249.316 69.6196 247.517C69.1558 246.515 68.8732 245.637 68.7718 244.868C68.6704 244.106 68.6196 242.953 68.6196 241.421V206.048C68.6196 204.582 68.6704 203.465 68.7718 202.696C68.8732 201.934 69.1848 201.078 69.721 200.149C70.6558 198.487 73.2136 197.653 77.409 197.653C81.6045 197.653 83.9594 198.422 84.8942 199.953C85.5608 201.085 85.8941 202.449 85.8941 204.053C86.1622 203.588 86.7564 202.921 87.6911 202.05C88.6259 201.186 89.5244 200.483 90.3866 199.953C92.6474 198.422 95.1473 197.653 97.8718 197.653H97.8935Z" fill="#1576D4"/>
<path d="M179.846 217.694C179.846 221.794 178.832 224.827 176.803 226.793C174.774 228.76 172.528 229.739 170.064 229.739C170.064 229.739 155.166 231.06 150.442 229.739C149.101 229.362 145.681 226.844 145.681 226.844C145.254 228.085 146.21 230.037 146.558 230.886C147.101 232.199 147.971 233.44 149.703 234.441C151.898 235.711 154.094 236.342 156.289 236.342C160.151 236.342 163.18 235.943 165.376 235.145L166.477 234.746C168.071 234.013 169.405 233.643 170.47 233.643C172.6 233.643 174.426 235.145 175.962 238.142C176.824 239.941 177.259 241.472 177.259 242.742C177.259 248.67 170.173 251.638 155.999 251.638C151.072 251.638 146.696 250.789 142.87 249.091C139.044 247.393 136.066 245.144 133.935 242.343C129.74 236.944 127.646 230.915 127.646 224.254C127.646 215.858 130.356 209.146 135.783 204.111C141.203 199.082 147.978 196.564 156.094 196.564C165.339 196.564 172.129 199.83 176.455 206.36C178.716 209.828 179.846 213.609 179.846 217.709V217.694ZM158.782 220.64C161.311 220.64 162.572 219.573 162.572 217.44C162.572 215.909 161.992 214.675 160.825 213.739C159.659 212.811 157.999 212.339 155.833 212.339C153.666 212.339 151.521 213.224 149.391 214.988C147.261 216.751 146.196 218.637 146.196 220.633H158.775L158.782 220.64Z" fill="#1576D4"/>
<path d="M219.141 242.045C216.482 245.986 211.946 247.371 206.424 247.371C200.903 247.371 195.236 246.174 190.411 241.073C185.585 235.972 183.172 230.029 183.172 223.23C183.172 216.431 185.599 210.467 190.461 205.337C195.316 200.207 200.642 197.638 206.432 197.638C208.692 197.638 210.757 198.052 212.62 198.886C214.482 199.721 215.764 200.483 216.46 201.186C217.156 201.883 217.706 202.536 218.105 203.138C218.301 201.273 218.989 199.859 220.148 198.893C221.315 197.928 223.192 197.442 225.786 197.442C228.38 197.442 230.278 197.645 231.474 198.045C232.669 198.444 233.517 199.126 234.017 200.091C234.517 201.056 234.814 201.905 234.916 202.638C235.017 203.37 235.068 204.502 235.068 206.033V247.415C235.068 255.077 232.409 261.26 227.083 265.954C221.757 270.656 215.772 273 209.113 273C204.055 273 199.229 271.766 194.635 269.299C190.041 266.832 187.744 264.597 187.744 262.602C187.744 260.004 188.744 257.704 190.737 255.701C191.998 254.301 192.983 253.336 193.679 252.806C194.374 252.269 195.193 252.008 196.128 252.008C197.062 252.008 198.026 252.407 199.019 253.205C202.214 255.672 205.671 256.906 209.402 256.906C211.931 256.906 215.076 255.919 216.677 253.916C218.272 251.914 218.779 249.098 219.119 246.813C219.402 244.919 219.119 242.024 219.119 242.024L219.141 242.045ZM197.57 223.303C197.57 225.806 198.548 228.063 200.512 230.058C202.475 232.061 204.852 233.062 207.663 233.062C210.475 233.062 212.794 232.039 214.641 230C216.489 227.961 217.409 225.727 217.409 223.303C217.409 220.879 216.525 218.608 214.757 216.49C212.989 214.371 210.605 213.311 207.605 213.311C204.606 213.311 202.185 214.349 200.338 216.431C198.49 218.514 197.57 220.8 197.57 223.303Z" fill="#1576D4"/>
<g clip-path="url(#clip0_1737_30)">
<path d="M109.251 125.106C88.4233 102.747 62.3707 95.8519 32.3469 99.0264C34.269 101.27 35.9093 103.149 37.5055 105.061C38.6212 106.395 39.6154 107.894 37.8535 109.349C36.0364 110.848 34.8323 109.459 33.7609 108.109C31.4025 105.127 28.6299 102.609 25.3988 100.603C24.2555 99.8972 23.2835 99.0816 23.5099 97.5494C23.7474 95.9346 24.9735 95.6756 26.3157 95.4441C62.0669 89.3983 92.7921 98.0509 116.873 126.202C117.58 127.029 118.27 127.867 119.204 128.98C120.121 126.996 120.844 125.282 121.695 123.629C129.029 109.388 141.042 101.11 156.247 97.2463C168.636 94.0994 180.963 90.8753 192.452 85.0995C196.969 82.8288 201.399 80.4094 205.326 77.1853C206.315 76.3751 207.292 75.4327 208.767 76.1382C210.319 76.8822 210.247 78.2986 210.264 79.6874C210.413 92.2751 207.966 104.108 199.681 114.585C203.884 115.042 207.745 115.406 211.595 115.907C214.826 116.326 215.345 116.988 215.041 120.239C214.544 125.569 214.704 130.871 215.538 136.15C215.798 137.798 215.466 139.231 213.655 139.54C211.838 139.848 211.131 138.592 210.75 136.96C210.308 135.07 211.225 132.419 209.468 131.422C207.889 130.523 205.536 130.926 203.52 130.837C182.482 129.945 161.616 131.091 141.125 136.305C135.182 137.815 129.322 139.639 123.76 142.841H126.511C156.214 142.841 185.923 142.841 215.627 142.841C223.967 142.841 228.623 149.129 226.176 157.088C225.811 158.284 224.939 158.879 223.724 158.945C222.807 159 221.884 158.983 220.967 158.983C154.016 158.983 87.0646 158.983 20.1132 158.983C14.8993 158.995 14.822 158.917 14.822 153.786C14.822 146.82 16.0868 145.023 22.7201 142.918C23.8965 142.543 23.9407 141.651 24.1837 140.84C26.1168 134.321 26.0947 127.624 25.8738 120.917C25.7247 116.343 25.6971 116.222 30.1045 115.698C54.2959 112.816 78.1779 113.642 101.381 121.981C104.037 122.934 106.633 124.064 109.251 125.111V125.106ZM124.893 128.589C128.632 126.847 131.874 125.172 135.237 123.794C153.033 116.492 171.668 114.012 190.778 114.315C191.844 114.331 192.932 114.623 193.882 113.681C202.205 105.425 204.79 95.0418 205.464 83.3248C198.433 87.7008 191.59 91.1508 184.388 93.9065C175.363 97.3565 165.996 99.6051 156.711 102.146C147.952 104.543 140.197 108.721 133.768 115.18C130.007 118.961 127.102 123.304 124.898 128.589H124.893ZM117.497 142.94C117.514 142.764 117.53 142.593 117.547 142.417C117.05 142.202 116.564 141.976 116.061 141.783C90.373 131.725 63.5692 129.862 36.3733 131.063C31.0656 131.3 31.0821 131.504 30.2647 136.894C30.099 137.98 30.0162 139.121 29.6019 140.118C28.6299 142.472 29.37 142.995 31.7946 142.99C59.6533 142.913 87.512 142.94 115.376 142.94C116.083 142.94 116.796 142.94 117.503 142.94H117.497ZM117.944 136.773C116.105 134.128 113.322 132.805 110.604 131.466C85.728 119.192 59.333 117.517 32.3027 120.361C31.6621 120.427 31.1153 120.432 30.8778 121.292C29.8781 124.907 31.1595 126.572 34.8047 126.28C34.987 126.263 35.1692 126.247 35.357 126.236C56.5769 124.962 77.6035 126.147 98.365 131.047C104.965 132.607 111.389 134.706 117.956 136.779L117.944 136.773ZM123.031 136.746C123.302 136.839 123.484 136.972 123.617 136.933C124.23 136.762 124.843 136.569 125.439 136.338C140.899 130.341 157.054 127.619 173.496 126.373C184.957 125.508 196.439 125.464 207.905 126.401C209.319 126.517 210.418 126.296 210.043 124.604C209.717 123.144 211.678 120.752 208.342 120.41C191.723 118.713 175.164 118.641 158.711 122.014C147.046 124.406 135.806 127.928 125.611 134.243C124.633 134.85 123.186 135.186 123.031 136.746Z" fill="#1576D4"/>
<path d="M105.871 31.4859L117.911 16.2913C118.331 15.7622 118.894 15.7622 119.32 16.2913L131.36 31.4859H105.865H105.871ZM111.19 58.9209V34.5722H125.097V58.9209H119.364V62.0072H116.724V58.9209H111.184H111.19ZM109.45 121.375V91.1563C109.45 86.8355 112.974 83.3138 117.309 83.3138C121.645 83.3138 125.163 86.83 125.163 91.1563V120.063H128.251V91.1563C128.251 85.1325 123.346 80.233 117.309 80.233C111.272 80.233 106.362 85.1325 106.362 91.1563V121.375H109.45ZM72.7928 50.4722L85.8495 35.25C86.3245 34.6989 87.048 34.6989 87.523 35.25L100.58 50.4722H72.7928ZM78.7357 101.44V53.553H95.8961V111.052H98.9835V62.0017H102.888V65.088H111.184V62.0017H113.636V65.088H122.462V62.0017H125.047V65.088H133.47V62.0017H137.375V108.236H140.462V54.0324H157.623V99.9799H160.71V54.0324H162.571C164.615 54.0324 165.349 52.9247 165.57 52.4452C165.786 51.9712 166.15 50.6926 164.825 49.1439L151.591 33.7179C151.138 33.1888 150.564 32.8196 149.951 32.5826V29.6782H161.892L157.832 25.677L161.892 21.6758H149.951V19.7469H146.858V32.5771C146.245 32.8141 145.676 33.1778 145.218 33.7124L131.984 49.1384C130.653 50.6871 131.018 51.9602 131.244 52.4397C131.465 52.9137 132.194 54.0269 134.243 54.0269H137.364V58.9099H130.366V61.9962H128.129L128.184 34.5611H131.46C132.89 34.5611 133.984 33.9825 134.47 32.9794C134.956 31.9764 134.729 30.7584 133.846 29.6451L121.739 14.3679C121.302 13.8167 120.756 13.4034 120.154 13.1333V9.91477H132.1L128.041 5.91359L132.1 1.91241H120.154V0H117.061V13.1444C116.464 13.4144 115.917 13.8223 115.481 14.3789L103.38 29.6561C102.496 30.7694 102.27 31.9874 102.756 32.9904C103.242 33.9935 104.335 34.5667 105.766 34.5667H108.097L108.086 62.0017H105.976V58.9154H98.9835V53.553H100.845C102.888 53.553 103.623 52.4452 103.844 51.9657C104.065 51.4917 104.429 50.2131 103.104 48.6645L89.8703 33.2384C89.4174 32.7094 88.843 32.3401 88.2299 32.1031V29.1987H100.171L96.1115 25.1975L100.171 21.1963H88.2299V19.2729H85.137V32.1031C84.5239 32.3401 83.955 32.7038 83.4966 33.2384L70.2632 48.659C68.9376 50.2131 69.3022 51.4862 69.5231 51.9602C69.744 52.4342 70.4731 53.5475 72.5222 53.5475H75.6427V101.435H78.7302L78.7357 101.44ZM134.514 50.9516L147.571 35.7295C148.046 35.1784 148.769 35.1784 149.244 35.7295L162.301 50.9516H134.514Z" fill="#1576D4"/>
<path d="M148.25 57.7856C145.875 57.7856 143.953 59.7036 143.953 62.0734V68.7696H152.547V62.0734C152.547 59.7036 150.625 57.7856 148.25 57.7856Z" fill="#1576D4"/>
<path d="M122.054 42.6021C122.054 40.2323 120.275 38.3143 118.082 38.3143C115.89 38.3143 114.111 40.2323 114.111 42.6021V49.2983H122.054V42.6021Z" fill="#1576D4"/>
<path d="M108.008 72.9361C108.008 71.0843 106.622 69.5852 104.904 69.5852C103.187 69.5852 101.8 71.0843 101.8 72.9361V78.1662H108.003V72.9361H108.008Z" fill="#1576D4"/>
<path d="M134.1 72.9361C134.1 71.0843 132.713 69.5852 130.996 69.5852C129.278 69.5852 127.892 71.0843 127.892 72.9361V78.1662H134.094V72.9361H134.1Z" fill="#1576D4"/>
<path d="M148.25 83.6114C145.875 83.6114 143.953 85.5293 143.953 87.8992V94.5953H152.547V87.8992C152.547 85.5348 150.625 83.6114 148.25 83.6114Z" fill="#1576D4"/>
<path d="M86.5289 57.3006C84.154 57.3006 82.2319 59.2185 82.2319 61.5884V68.2846H90.8259V61.5884C90.8259 59.213 88.9039 57.3006 86.5289 57.3006Z" fill="#1576D4"/>
<path d="M86.5289 83.1319C84.154 83.1319 82.2319 85.0498 82.2319 87.4197V94.1159H90.8259V87.4197C90.8259 85.0498 88.9039 83.1319 86.5289 83.1319Z" fill="#1576D4"/>
</g>
<defs>
<clipPath id="clip0_1737_30">
<rect width="212" height="159" fill="#1576D4" transform="translate(14.822)"/>
</clipPath>
</defs>
</svg>
