<svg  width="284" height="92" viewBox="0 0 284 92" fill="none" xmlns="http://www.w3.org/2000/svg">
<g clip-path="url(#clip0_840_11542)">
<path d="M27.4373 26.6514L15.7115 43.9667V26.6514H2.88818V67.7899H15.7115V49.9516L27.6106 67.7899H42.86L27.8417 46.349L41.9358 26.6514H27.4373ZM46.2612 26.6514V49.8354C46.2612 61.9794 53.7704 68.1966 63.9944 68.1966C74.2184 68.1966 82.4785 61.9794 82.4785 49.8354V26.6514H69.7129V49.8354C69.7129 53.3798 68.1533 55.9945 64.2832 55.9945C60.4131 55.9945 59.0268 53.3798 59.0268 49.8354V26.6514H46.2612ZM105.049 26.6514H88.0092V67.7899H105.049C118.104 67.7899 126.306 58.8417 126.306 47.1044C126.306 35.2509 118.104 26.6514 105.049 26.6514ZM103.894 56.285H100.833V37.9238H103.894C109.555 37.9238 113.309 41.1196 113.309 47.1044C113.309 53.0893 109.555 56.285 103.894 56.285ZM150.865 68.1966C162.417 68.1966 171.833 59.4227 171.833 47.0463C171.833 34.6699 162.533 25.9541 150.865 25.9541C139.254 25.9541 129.781 34.6699 129.781 47.0463C129.781 59.4227 139.254 68.1966 150.865 68.1966ZM150.865 56.1688C145.608 56.1688 142.836 52.5082 142.836 47.0463C142.836 41.4682 145.608 37.8657 150.865 37.8657C156.006 37.8657 158.836 41.4682 158.836 47.0463C158.836 52.5082 156.006 56.1688 150.865 56.1688ZM203.722 36.936V26.6514H176.458V67.7899H203.722V57.5053H189.282V51.6947H201.99V41.9912H189.282V36.936H203.722ZM230.158 40.9453C230.158 43.3857 228.888 44.4316 226.462 44.4316H221.379V37.4589H226.462C228.888 37.4589 230.158 38.8535 230.158 40.9453ZM227.617 26.6514H208.555V67.7899H221.379V53.0312H221.436L229.119 67.7899H243.213L234.317 52.0434C240.151 50.1259 243.155 45.5356 243.155 40.1318C243.155 32.5781 237.899 26.6514 227.617 26.6514ZM263.252 68.1966C273.129 68.1966 278.848 62.6185 278.848 55.0648C278.848 42.3979 259.844 43.2695 259.844 38.0981C259.844 36.7036 260.652 36.0063 261.692 36.0063C263.078 36.0063 264.407 36.7617 264.522 39.2602H278.328C277.981 30.7187 271.627 25.9541 261.75 25.9541C253.028 25.9541 246.096 30.2539 246.096 38.5048C245.865 52.5663 265.158 50.5326 265.216 56.1107C265.216 57.5634 264.003 58.1444 262.732 58.1444C261.461 58.1444 259.844 57.6215 259.613 54.6H245.981C246.558 63.8387 253.894 68.1966 263.252 68.1966Z" fill="#9F1288"/>
<path d="M284 89.5791H86.644" stroke="#9F1288" stroke-width="3"/>
<path d="M168.475 2.4209H0" stroke="#9F1288" stroke-width="3"/>
</g>
<defs>
<clipPath id="clip0_840_11542">
<rect width="284" height="92" fill="#9F1288"/>
</clipPath>
</defs>
</svg>
